<svg xmlns="http://www.w3.org/2000/svg" viewBox="0 0 520 140" fill="none">
  <defs>
    <linearGradient id="hTop" x1="0" y1="0" x2="1" y2="0.6">
      <stop offset="0%" stop-color="#FF2E1F"/>
      <stop offset="100%" stop-color="#E10600"/>
    </linearGradient>
    <linearGradient id="hLeft" x1="0" y1="0" x2="0" y2="1">
      <stop offset="0%" stop-color="#C40500"/>
      <stop offset="100%" stop-color="#8E0300"/>
    </linearGradient>
    <linearGradient id="hRight" x1="0" y1="0" x2="0" y2="1">
      <stop offset="0%" stop-color="#E10600"/>
      <stop offset="100%" stop-color="#A50400"/>
    </linearGradient>
    <linearGradient id="hBg" x1="0" y1="0" x2="1" y2="1">
      <stop offset="0%" stop-color="#1A1A1A"/>
      <stop offset="100%" stop-color="#000000"/>
    </linearGradient>
  </defs>

  <!-- Icon block -->
  <rect x="0" y="0" width="140" height="140" rx="32" fill="url(#hBg)"/>
  <g transform="translate(70 70)">
    <path d="M 0 -36 L 35 -15 L 0 6 L -35 -15 Z" fill="url(#hTop)"/>
    <path d="M -35 -15 L 0 6 L 0 42 L -35 21 Z" fill="url(#hLeft)"/>
    <path d="M 35 -15 L 0 6 L 0 42 L 35 21 Z" fill="url(#hRight)"/>
    <path d="M -4 -26 L 8 -19 L -1 -15 L 6 -7 L -7 -14 L 3 -18 Z" fill="#FFFFFF" opacity="0.95"/>
  </g>

  <!-- Wordmark -->
  <g transform="translate(168 92)" font-family="ui-sans-serif, system-ui, -apple-system, 'Segoe UI', sans-serif" font-weight="700">
    <text font-size="56" fill="currentColor">
      <tspan>Logi</tspan><tspan fill="#E10600">Stock</tspan>
    </text>
  </g>
</svg>
